<svg id="icon" height="512" viewBox="0 0 128 128" width="512" xmlns="http://www.w3.org/2000/svg"><path d="m64.425 32.95s6.608-13.691 22.392-12.093a2.508 2.508 0 0 1 1.757 1.027 12.644 12.644 0 0 1 2.526 8.036c-.3 5.274-19.774 9.338-19.774 9.338l-4.128-.821z" fill="#eeefee"/><path d="m64.421 32.95s-6.608-13.691-22.392-12.093a2.508 2.508 0 0 0 -1.757 1.027 12.644 12.644 0 0 0 -2.523 8.036c.3 5.274 19.774 9.338 19.774 9.338l4.128-.821z" fill="#eeefee"/><circle cx="64.003" cy="37.518" fill="#dbd8dd" r="6.019" transform="matrix(.085 -.996 .996 .085 21.19 98.107)"/><rect fill="#ef5261" height="15.24" rx="1.016" width="82" x="23" y="37.518"/><path d="m100.96 49.964v50.292a1.019 1.019 0 0 1 -1.016 1.016h-71.883a1.019 1.019 0 0 1 -1.016-1.016v-50.292z" fill="#ef5261"/><path d="m27.045 52.758h73.914v3.556h-73.914z" fill="#da364c"/><path d="m58.057 37.518h11.891v63.754h-11.891z" fill="#eeefee"/><path d="m27.045 69.395h73.914v11.891h-73.914z" fill="#eeefee"/><g fill="#dbd8dd"><path d="m58.054 52.758h11.897v3.556h-11.897z"/><path d="m58.057 67.624h11.891v1.771h-11.891z"/><path d="m58.057 81.286h11.891v1.771h-11.891z"/></g></svg>